<svg width="313" height="102" viewBox="0 0 313 102" fill="none" xmlns="http://www.w3.org/2000/svg">
<g id="Frame 1" clip-path="url(#clip0_1_36)">
<path id="A" d="M61.5801 52L75.5371 25.3516C76.0176 24.4023 76.9023 23.7695 78.1914 23.4531C78.5664 23.3594 79.0293 23.3125 79.5801 23.3125C80.1309 23.3125 80.7285 23.4707 81.373 23.7871C82.0293 24.0918 82.5449 24.5781 82.9199 25.2461L97.8965 52H83.6406L82.5332 49.2227H74.9395L73.9902 52H61.5801ZM75.8008 43.6504H81.4785L78.7891 36.0566L75.8008 43.6504Z" fill="url(#paint0_linear_1_36)"/>
<path id="T" d="M34.002 23.9277H60.5801V33.0332H52.7578V52H41.8242V33.0332H34.002V23.9277Z" fill="url(#paint1_linear_1_36)"/>
<path id="S" d="M117.234 52.6855C111.973 52.6855 108.48 52.0352 106.758 50.7344V42.6836C106.805 42.6953 106.975 42.748 107.268 42.8418C107.572 42.9355 107.953 43.0527 108.41 43.1934C109.477 43.5215 110.596 43.832 111.768 44.125C112.951 44.4062 113.9 44.5469 114.615 44.5469C115.787 44.5469 116.373 44.1895 116.373 43.4746C116.373 42.9238 115.869 42.3379 114.861 41.7168C114.404 41.4355 113.883 41.1426 113.297 40.8379C112.723 40.5332 112.137 40.1934 111.539 39.8184C110.074 38.916 108.896 37.8613 108.006 36.6543C107.127 35.4473 106.688 33.9238 106.688 32.084C106.688 28.0645 108.809 25.3633 113.051 23.9805C114.773 23.418 116.76 23.1367 119.01 23.1367C121.271 23.1367 123.633 23.3945 126.094 23.9102C126.598 24.0156 126.932 24.0918 127.096 24.1387V32.207C123.908 31.5273 121.617 31.1875 120.223 31.1875C119.684 31.1875 119.279 31.2812 119.01 31.4688C118.74 31.6562 118.605 31.8672 118.605 32.1016C118.605 32.3359 118.723 32.582 118.957 32.8398C119.191 33.0859 119.596 33.3379 120.17 33.5957C120.744 33.8418 121.412 34.1465 122.174 34.5098C122.947 34.8613 123.668 35.2422 124.336 35.6523C127.336 37.4922 128.836 40.0059 128.836 43.1934C128.836 46.2168 127.816 48.5547 125.777 50.207C123.715 51.8477 120.867 52.6738 117.234 52.6855Z" fill="url(#paint2_linear_1_36)"/>
<path id="FANDAKLI" d="M32.1621 64.9277H52.3594V72.873H43.0957V75.4746H52.3594V83.1387H43.0957V93H32.1621V64.9277ZM56.3735 93L70.3305 66.3516C70.811 65.4023 71.6958 64.7695 72.9848 64.4531C73.3598 64.3594 73.8227 64.3125 74.3735 64.3125C74.9243 64.3125 75.522 64.4707 76.1665 64.7871C76.8227 65.0918 77.3384 65.5781 77.7134 66.2461L92.6899 93H78.4341L77.3266 90.2227H69.7329L68.7837 93H56.3735ZM70.5942 84.6504H76.272L73.5825 77.0566L70.5942 84.6504ZM97.8818 64.9277H100.729L116.058 75.8613V64.9277H125.954V93H122.175L107.743 83.3496V93H97.8818V64.9277ZM132.816 64.9277C139.929 64.4004 144.57 64.1367 146.738 64.1367C148.917 64.1367 150.634 64.3418 151.888 64.752C153.154 65.1504 154.285 65.707 155.281 66.4219C157.214 67.793 158.673 69.6152 159.658 71.8887C160.654 74.1621 161.152 76.4648 161.152 78.7969C161.152 81.1289 160.771 83.168 160.009 84.9141C159.259 86.6484 158.216 88.1133 156.88 89.3086C154.15 91.7812 150.617 93.0117 146.281 93H132.816V64.9277ZM143.749 73.8398V84.5449C144.371 84.0176 145.044 83.4961 145.771 82.9805C148.56 80.9766 149.955 78.8789 149.955 76.6875C149.955 75.6211 149.638 74.6367 149.005 73.7344C148.372 72.8203 147.546 72.3633 146.527 72.3633C145.519 72.3633 144.593 72.8555 143.749 73.8398ZM163.18 93L177.137 66.3516C177.617 65.4023 178.502 64.7695 179.791 64.4531C180.166 64.3594 180.629 64.3125 181.18 64.3125C181.73 64.3125 182.328 64.4707 182.973 64.7871C183.629 65.0918 184.144 65.5781 184.519 66.2461L199.496 93H185.24L184.133 90.2227H176.539L175.59 93H163.18ZM177.4 84.6504H183.078L180.389 77.0566L177.4 84.6504ZM215.815 64.9277V73.5586L222.582 64.9277H233.991L224.92 76.7578L235.397 93H222.582L216.711 83.0684L216.061 84.2109V93H204.688V64.9277H215.815ZM241.591 64.9277H252.524V84.5449H261.964V93H241.591V64.9277ZM278.142 93H267.208V64.9277H278.142V93Z" fill="white"/>
<path id="N" d="M138.162 23.9277H141.01L156.338 34.8613V23.9277H166.234V52H162.455L148.023 42.3496V52H138.162V23.9277Z" fill="url(#paint3_linear_1_36)"/>
<path id="E" d="M178.162 23.9277H198.395V32.0137H189.096V34.3164H198.359V41.207H189.096V43.8613H199.01V52H178.162V23.9277Z" fill="url(#paint4_linear_1_36)"/>
<path id="M" d="M238.162 23.9277H242.188L255.758 36.6719L269.697 23.9277H273.582V52H262.033V42.8945L254.861 50.7695L247.883 43.1055V52H238.162V23.9277Z" fill="url(#paint5_linear_1_36)"/>
<path id="E_2" d="M208.162 23.9277H228.395V32.0137H219.096V34.3164H228.359V41.207H219.096V43.8613H229.01V52H208.162V23.9277Z" fill="url(#paint6_linear_1_36)"/>
</g>
<defs>
<linearGradient id="paint0_linear_1_36" x1="80" y1="9" x2="80" y2="70" gradientUnits="userSpaceOnUse">
<stop offset="0.161458" stop-color="#FF56F6"/>
<stop offset="0.541667" stop-color="#B936EE"/>
<stop offset="0.833333" stop-color="#3BACE2"/>
<stop offset="1" stop-color="#406AFF"/>
</linearGradient>
<linearGradient id="paint1_linear_1_36" x1="43.5" y1="9" x2="43.5" y2="63" gradientUnits="userSpaceOnUse">
<stop stop-color="#FF56B7"/>
<stop offset="0.0001" stop-color="#406AFF" stop-opacity="0.32"/>
<stop offset="0.5375" stop-color="#B936EE"/>
<stop offset="0.9999" stop-color="#406AFF"/>
</linearGradient>
<linearGradient id="paint2_linear_1_36" x1="117.435" y1="-4.17045" x2="118.285" y2="69.9967" gradientUnits="userSpaceOnUse">
<stop offset="0.172916" stop-color="#E34FDB" stop-opacity="0"/>
<stop offset="0.240625" stop-color="#E558DE"/>
<stop offset="0.808333" stop-color="#406AFF"/>
</linearGradient>
<linearGradient id="paint3_linear_1_36" x1="152.5" y1="9" x2="152.5" y2="70" gradientUnits="userSpaceOnUse">
<stop offset="0.34385" stop-color="#D22EC9"/>
<stop offset="0.558333" stop-color="#8A2284" stop-opacity="0.65625"/>
<stop offset="0.751041" stop-color="#406AFF"/>
<stop offset="1" stop-color="#E810DD" stop-opacity="0"/>
</linearGradient>
<linearGradient id="paint4_linear_1_36" x1="189" y1="9" x2="189" y2="70" gradientUnits="userSpaceOnUse">
<stop stop-color="#FF56B7"/>
<stop offset="0.5" stop-color="#B936EE"/>
<stop offset="1" stop-color="#FF56F6" stop-opacity="0"/>
</linearGradient>
<linearGradient id="paint5_linear_1_36" x1="256" y1="9" x2="256" y2="70" gradientUnits="userSpaceOnUse">
<stop stop-color="#FF56F6"/>
<stop offset="0.522727" stop-color="#B936EE"/>
<stop offset="0.75" stop-color="#3BACE2"/>
<stop offset="1" stop-color="#406AFF" stop-opacity="0.32"/>
</linearGradient>
<linearGradient id="paint6_linear_1_36" x1="219" y1="9" x2="219" y2="70" gradientUnits="userSpaceOnUse">
<stop offset="0.0260417" stop-color="#FF56B7"/>
<stop offset="0.5" stop-color="#B936EE"/>
<stop offset="1" stop-color="#FF56B7" stop-opacity="0"/>
</linearGradient>
<clipPath id="clip0_1_36">
<rect width="313" height="102" fill="white"/>
</clipPath>
</defs>
</svg>
